<svg xmlns="http://www.w3.org/2000/svg" viewBox="0 0 1200 800">
  <defs>
    <linearGradient id="bg2" x1="0" y1="0" x2="0" y2="1">
      <stop offset="0%" stop-color="#1A1A1A"/>
      <stop offset="100%" stop-color="#2D2D2D"/>
    </linearGradient>
  </defs>
  <rect width="1200" height="800" fill="url(#bg2)"/>
  <circle cx="300" cy="360" r="60" fill="#3A3A3A"/><path d="M 220 640 C 220 440 270 420 300 420 C 330 420 380 440 380 640 Z" fill="#3A3A3A"/><circle cx="460" cy="360" r="60" fill="#3A3A3A"/><path d="M 380 640 C 380 440 430 420 460 420 C 490 420 540 440 540 640 Z" fill="#3A3A3A"/><circle cx="600" cy="340" r="70" fill="#3A3A3A"/><path d="M 510 630 C 510 420 570 400 600 400 C 630 400 690 420 690 630 Z" fill="#3A3A3A"/><circle cx="740" cy="360" r="60" fill="#3A3A3A"/><path d="M 660 640 C 660 440 710 420 740 420 C 770 420 820 440 820 640 Z" fill="#3A3A3A"/><circle cx="900" cy="360" r="60" fill="#3A3A3A"/><path d="M 820 640 C 820 440 870 420 900 420 C 930 420 980 440 980 640 Z" fill="#3A3A3A"/>
  <text x="600" y="730" font-family="Georgia, serif" font-size="32" font-style="italic" fill="#FFD700" text-anchor="middle">The FiveServ Family</text>
  <text x="600" y="765" font-family="Inter, Arial, sans-serif" font-size="14" fill="#FFFFFF" fill-opacity="0.6" text-anchor="middle" letter-spacing="4">VENEZUELAN-AMERICAN — CENTRAL FLORIDA</text>
</svg>